<?xml version="1.0" ?><!DOCTYPE svg  PUBLIC '-//W3C//DTD SVG 1.1//EN'  'http://www.w3.org/Graphics/SVG/1.1/DTD/svg11.dtd'><svg enable-background="new 0 0 512 512" height="512px" id="Layer_1" version="1.1" viewBox="0 0 512 512" width="512px" xml:space="preserve" xmlns="http://www.w3.org/2000/svg" xmlns:xlink="http://www.w3.org/1999/xlink"><g><path d="M462.887,105.412h34.052c8.323,0,15.059-6.735,15.059-15.059s-6.735-15.059-15.059-15.059h-59.781    C390.785,28.808,326.694,0.002,255.999,0.002c-106.025,0-197.196,64.787-236.016,156.851h-4.925    C6.742,156.853,0,163.588,0,171.911c0,6.445,4.048,11.921,9.731,14.073C3.394,208.245,0,231.733,0,256    c0,47.559,13.152,93.789,38.087,134.175L0.919,491.764c-1.691,4.617-1.022,9.779,1.794,13.809    c2.824,4.029,7.427,6.426,12.346,6.426h79.059H417.88c0.118,0,0.235,0,0.295,0h78.764c4.765,0,9.234-2.25,12.088-6.072    c2.838-3.81,3.706-8.75,2.338-13.309l-33.054-110.18c22.05-38.673,33.687-82.228,33.687-126.438    C511.997,199.755,493.751,147.7,462.887,105.412z M82.829,481.881H36.603l66.104-180.676l39.639-24.598l-35.056,49.51    c-0.045,0.063-0.088,0.126-0.133,0.188l-0.033,0.046c-0.052,0.073-0.094,0.149-0.144,0.223c-0.233,0.341-0.456,0.686-0.658,1.041    c-0.045,0.08-0.083,0.162-0.127,0.242c-0.084,0.154-0.166,0.31-0.244,0.467c-0.05,0.099-0.107,0.195-0.155,0.295    c-0.048,0.103-0.092,0.205-0.137,0.308c-0.06,0.134-0.108,0.27-0.164,0.404c-0.079,0.192-0.162,0.383-0.232,0.577    c-0.044,0.121-0.086,0.243-0.127,0.365c-0.045,0.134-0.083,0.269-0.124,0.403c-0.056,0.186-0.111,0.371-0.16,0.559    c-0.037,0.141-0.074,0.28-0.107,0.422c-0.028,0.122-0.054,0.244-0.079,0.366c-0.039,0.189-0.07,0.38-0.102,0.569    c-0.027,0.161-0.055,0.321-0.076,0.482c-0.013,0.101-0.029,0.2-0.04,0.3c-0.022,0.2-0.031,0.4-0.046,0.601    c-0.013,0.182-0.028,0.362-0.035,0.544c0,0.002,0,0.005,0,0.008c-0.004,0.111-0.008,0.224-0.009,0.335    c-0.002,0.18,0.006,0.358,0.01,0.538c0.004,0.16,0,0.319,0.009,0.479c0.003,0.062,0.007,0.123,0.011,0.186    c0.011,0.158,0.033,0.314,0.049,0.473c0.02,0.197,0.033,0.395,0.061,0.591c0.013,0.098,0.032,0.195,0.047,0.293    c0.028,0.174,0.063,0.346,0.097,0.518c0.04,0.202,0.074,0.405,0.122,0.605c0.024,0.1,0.052,0.198,0.077,0.297    c0.039,0.149,0.083,0.297,0.127,0.445c0.057,0.193,0.113,0.387,0.178,0.579c0.04,0.118,0.081,0.236,0.123,0.354    c0.046,0.126,0.095,0.249,0.144,0.374c0.077,0.195,0.16,0.389,0.246,0.581c0.055,0.125,0.109,0.25,0.168,0.373    c0.049,0.103,0.098,0.205,0.149,0.307c0.107,0.213,0.227,0.42,0.345,0.628c0.064,0.113,0.125,0.229,0.192,0.342    c0.047,0.079,0.091,0.159,0.141,0.237c0.166,0.266,0.35,0.521,0.534,0.778c0.047,0.064,0.088,0.132,0.137,0.196    c0.037,0.05,0.068,0.102,0.105,0.15c0.061,0.08,0.13,0.153,0.192,0.231c0.207,0.262,0.415,0.522,0.642,0.772l11.029,12.133    L82.829,481.881z M114.22,481.881l28.814-98.451l15.825,17.407c2.971,3.266,7.052,4.927,11.146,4.927    c3.61,0,7.235-1.294,10.125-3.911c6.154-5.604,6.603-15.118,1.008-21.279l-33.853-37.239c-0.008-0.008-0.014-0.017-0.022-0.025    l-4.7-5.169l-3.869-4.256l71.245-100.619c0.011-0.015,0.021-0.03,0.031-0.045l27.293-38.543l39.514,36.809l9.486,46.749    c0.016,0.075,0.042,0.146,0.059,0.221l5.467,26.885l-31.231-9.929c-7.875-2.515-16.39,1.868-18.911,9.794    c-2.516,7.926,1.867,16.396,9.793,18.912l55.622,17.683c0.008,0.003,0.016,0.006,0.024,0.009l15.985,5.088L393.1,481.881H114.22z     M427.037,481.881l-80.099-154.396c-0.171-0.328-0.364-0.641-0.558-0.954c-0.06-0.096-0.11-0.197-0.171-0.292    c-0.123-0.189-0.263-0.366-0.394-0.549c-0.156-0.221-0.307-0.444-0.475-0.656c-0.09-0.112-0.19-0.215-0.283-0.324    c-0.226-0.268-0.451-0.535-0.696-0.787c-0.063-0.064-0.132-0.121-0.195-0.185c-0.284-0.282-0.575-0.56-0.883-0.82    c-0.052-0.044-0.108-0.081-0.161-0.124c-0.324-0.268-0.655-0.526-1.004-0.767c-0.076-0.053-0.159-0.097-0.236-0.147    c-0.329-0.218-0.661-0.432-1.011-0.625c-0.173-0.097-0.357-0.175-0.535-0.265c-0.262-0.132-0.519-0.271-0.791-0.388    c-0.461-0.199-0.933-0.376-1.416-0.529l-13.485-4.294l-6.466-31.796l53.245-24.203l66.633,93.294l9.515,31.734    c0.018,0.058,0.04,0.113,0.058,0.171l29.074,96.902H427.037z M465.453,340.088c-0.02-0.043-0.046-0.084-0.065-0.127    c-0.156-0.334-0.326-0.659-0.507-0.98c-0.039-0.069-0.074-0.142-0.114-0.21c-0.233-0.4-0.481-0.793-0.755-1.169l-75.293-105.41    c-4.178-5.867-11.928-7.912-18.486-4.956l-58.215,26.454l-1.958-9.631l-4.724-23.293c-0.632-3.073-2.205-5.882-4.5-8.015    l-55.646-51.853c-3.184-2.971-7.447-4.339-11.801-3.971c-4.324,0.455-8.243,2.734-10.751,6.279l-35.521,50.161L82.411,278.353    c-2.86,1.779-5.044,4.456-6.198,7.618l-24.368,66.588C37.565,322.484,30.117,289.617,30.117,256c0-24.067,3.798-47.26,10.8-69.029    h94.611c8.316,0,15.059-6.734,15.059-15.06c0-8.323-6.742-15.059-15.059-15.059H53.074    C89.859,81.866,166.995,30.119,255.999,30.119c50.746,0,97.632,16.821,135.384,45.176h-73.268    c-8.323,0-15.059,6.735-15.059,15.059s6.735,15.059,15.059,15.059h106.094c35.838,39.992,57.67,92.783,57.67,150.588    C481.879,284.838,476.262,313.367,465.453,340.088z" fill="#414042"/></g></svg>